<?xml version="1.0" encoding="UTF-8"?>
<svg width="512" height="512" viewBox="0 0 512 512" fill="none" xmlns="http://www.w3.org/2000/svg">
    <!-- خلفية دائرية -->
    <circle cx="256" cy="256" r="248" fill="#007AFF" opacity="0.1"/>
    <circle cx="256" cy="256" r="220" fill="#007AFF" opacity="0.2"/>
    
    <!-- حبة الدواء -->
    <g transform="translate(128, 128) scale(1)">
        <path d="M128 0C57.308 0 0 57.308 0 128s57.308 128 128 128 128-57.308 128-128S198.692 0 128 0z" fill="#007AFF"/>
        <path d="M128 40c48.601 0 88 39.399 88 88s-39.399 88-88 88-88-39.399-88-88 39.399-88 88-88z" fill="white"/>
        <!-- خط في المنتصف -->
        <rect x="40" y="124" width="176" height="8" rx="4" fill="#007AFF"/>
    </g>
    
    <!-- علامة الوقت -->
    <g transform="translate(300, 300) scale(0.5)">
        <circle cx="128" cy="128" r="128" fill="#FF3B30"/>
        <path d="M128 64v64l45.255 45.255" stroke="white" stroke-width="24" stroke-linecap="round"/>
    </g>
</svg>
